:SAMPLES-PER-SECOND 30
:FULLY-SPECIFIED
:DEGREES
406
root  -23.4543 17.525 4.3093 142.067 -86.4711 -148.838
RightUpLeg  -42.5586 -11.4593 -12.5399
RightLeg  140.377 22.5006 -15.9668
RightFoot  -19.5109 0.901382 14.4148
RightToes  0.000482159 0.542163 -0.142577
Spine  32.3742 -1.49453 3.91626
Spine1  -2.34545 -1.50351 5.6919
HEad  34.4429 -1.3957 -3.20505
LeftShoulder1  0.173845 0.418419 3.23656
LeftArm  -96.1652 -38.9009 13.564
LeftForeArm  139.347 -81.3059 -103.007
LeftHand  -0.25398 0.0180481 5.50724
RightShoulder  0.747992 -15.9709 -16.3896
RightArm  -96.7165 49.8323 -14.7782
RightForeArm  34.6775 73.1 36.3516
RightHand  -11.59 24.6103 -43.0832
LeftUpLeg  -44.0252 0.394116 4.83789
LeftLeg  146.382 -1.83403 0.75759
LeftFoot  -23.2439 -1.35367 -14.257
LeftToes  1.06244e-005 4.65856e-005 -8.18505e-006
407
root  -23.4424 17.517 4.29475 141.954 -86.4789 -148.739
RightUpLeg  -42.5767 -11.4591 -12.5092
RightLeg  140.43 22.5041 -15.9392
RightFoot  -19.519 0.91186 14.5459
RightToes  0.000482159 0.542163 -0.142577
Spine  32.4198 -1.49198 3.88686
Spine1  -2.58413 -1.49155 5.65967
HEad  33.4432 -1.66484 -3.63055
LeftShoulder1  0.182277 0.245627 3.27825
LeftArm  -96.1158 -38.8368 13.6102
LeftForeArm  138.7 -81.3249 -102.394
LeftHand  -0.25398 0.0180481 5.50724
RightShoulder  0.727454 -15.7961 -16.299
RightArm  -96.4443 49.6189 -14.8113
RightForeArm  34.5086 73.0347 36.1799
RightHand  -11.5066 24.5031 -42.9437
LeftUpLeg  -44.0941 0.34285 4.95055
LeftLeg  146.408 -1.75962 0.710755
LeftFoot  -23.1926 -1.34703 -14.2525
LeftToes  1.06244e-005 4.65856e-005 -8.18505e-006
408
root  -23.4323 17.5062 4.28018 142.566 -86.462 -149.339
RightUpLeg  -42.657 -11.4801 -12.4527
RightLeg  140.469 22.5759 -15.9647
RightFoot  -19.5411 0.917727 14.5897
RightToes  0.000482159 0.542163 -0.142577
Spine  32.5013 -1.48725 3.8416
Spine1  -2.88497 -1.46515 5.58116
HEad  32.2832 -1.93891 -4.18182
LeftShoulder1  0.189719 0.122735 3.25657
LeftArm  -96.1134 -38.7938 13.6961
LeftForeArm  138.536 -81.3306 -102.224
LeftHand  -0.25398 0.0180481 5.50724
RightShoulder  0.716107 -15.7181 -16.2375
RightArm  -96.2732 49.5054 -14.7823
RightForeArm  34.3893 73.0248 36.1775
RightHand  -11.4469 24.4003 -42.8775
LeftUpLeg  -44.1669 0.359349 5.03184
LeftLeg  146.439 -1.70233 0.674307
LeftFoot  -23.1635 -1.34298 -14.2472
LeftToes  1.06244e-005 4.65856e-005 -8.18505e-006
409
root  -23.423 17.4981 4.26352 143.759 -86.4478 -150.546
RightUpLeg  -42.7262 -11.4748 -12.4283
RightLeg  140.515 22.6345 -15.9774
RightFoot  -19.5306 0.916779 14.5944
RightToes  0.000482159 0.542163 -0.142577
Spine  32.5921 -1.47884 3.71886
Spine1  -3.15418 -1.46318 5.49752
HEad  31.0523 -2.11316 -4.74112
LeftShoulder1  0.19418 0.0315157 3.27495
LeftArm  -96.0457 -38.6995 13.6474
LeftForeArm  139.478 -81.3076 -103.054
LeftHand  -0.25398 0.0180481 5.50724
RightShoulder  0.720654 -15.6397 -16.3232
RightArm  -96.0439 49.3924 -14.5182
RightForeArm  34.3652 73.0931 36.4063
RightHand  -11.4819 24.4017 -42.9943
LeftUpLeg  -44.1665 0.424494 5.0194
LeftLeg  146.462 -1.72736 0.68878
LeftFoot  -23.165 -1.33807 -14.1988
LeftToes  1.06244e-005 4.65856e-005 -8.18505e-006
410
root  -23.4149 17.4957 4.24642 144.724 -86.4427 -151.552
RightUpLeg  -42.7334 -11.4397 -12.4279
RightLeg  140.56 22.6424 -15.9575
RightFoot  -19.5129 0.920611 14.6769
RightToes  0.000482159 0.542163 -0.142577
Spine  32.6704 -1.51295 3.61869
Spine1  -3.40843 -1.48643 5.3164
HEad  29.7543 -2.29377 -5.22858
LeftShoulder1  0.196541 -0.134046 3.47642
LeftArm  -95.8251 -38.493 13.337
LeftForeArm  141.234 -81.2507 -104.714
LeftHand  -0.25398 0.0180481 5.50724
RightShoulder  0.718021 -15.4836 -16.3866
RightArm  -95.7314 49.2502 -14.2365
RightForeArm  34.5195 73.1723 36.6298
RightHand  -11.4948 24.394 -43.0482
LeftUpLeg  -44.1088 0.456686 5.00712
LeftLeg  146.469 -1.73803 0.69506
LeftFoot  -23.1795 -1.32961 -14.1018
LeftToes  1.06244e-005 4.65856e-005 -8.18505e-006
411
root  -23.4099 17.4949 4.23213 145.064 -86.4341 -151.925
RightUpLeg  -42.7095 -11.4115 -12.4025
RightLeg  140.581 22.6422 -15.9457
RightFoot  -19.5162 0.927907 14.772
RightToes  0.000482159 0.542163 -0.142577
Spine  32.7325 -1.63086 3.61614
Spine1  -3.70703 -1.54169 4.9807
HEad  28.2339 -2.65131 -5.74024
LeftShoulder1  0.199991 -0.344495 3.71686
LeftArm  -95.6139 -38.2685 13.0412
LeftForeArm  142.735 -81.1851 -106.259
LeftHand  -0.25398 0.0180481 5.50724
RightShoulder  0.694383 -15.3198 -16.2559
RightArm  -95.5149 49.2409 -14.1851
RightForeArm  34.783 73.1935 36.6347
RightHand  -11.4828 24.407 -42.9904
LeftUpLeg  -44.0635 0.460627 5.06113
LeftLeg  146.471 -1.69513 0.668646
LeftFoot  -23.1993 -1.31803 -13.9695
LeftToes  1.06244e-005 4.65856e-005 -8.18505e-006
